# xmcd CD database file
#
# Track frame offsets:
#	150
#	12290
#	23907
#	37695
#	49625
#	59920
#	72302
#	82465
#	94662
#	106202
#	118512
#	131010
#	143152
#	154567
#	165930
#	179040
#	188122
#	199725
#	210430
#	221655
#	232160
#
# Disc length: 3221 seconds
#
# Revision: 3
# Processed by: cddbd v1.5.2PL0 Copyright (c) Steve Scherf et al.
# Submitted via: CDex 1.51
#
DISCID=2c0c9315
DTITLE=Glen Campbell - Arkansas
DYEAR=1900
DGENRE=
TTITLE0=Arkansas
TTITLE1=Thats all that matters
TTITLE2=She called me baby
TTITLE3=Less of me
TTITLE4=Sunny day girl
TTITLE5=A place in the sun
TTITLE6=Just another man
TTITLE7=It's over
TTITLE8=You've still got a place in my heart
TTITLE9=Freeborn man
TTITLE10=By the time I get to Phoenix
TTITLE11=Homeward bound
TTITLE12=Tomorrow never comes
TTITLE13=Cold December
TTITLE14=My baby's gone
TTITLE15=Get back in the race
TTITLE16=Hey little one
TTITLE17=Bad seed
TTITLE18=I'll be lucky some day
TTITLE19=You're young and you'll forget
TTITLE20=Love is a lonesome river
EXTD=
EXTT0=
EXTT1=
EXTT2=
EXTT3=
EXTT4=
EXTT5=
EXTT6=
EXTT7=
EXTT8=
EXTT9=
EXTT10=
EXTT11=
EXTT12=
EXTT13=
EXTT14=
EXTT15=
EXTT16=
EXTT17=
EXTT18=
EXTT19=
EXTT20=
PLAYORDER=
